# xmcd
#
# Track frame offsets:
#	150
#	13836
#	24261
#	36258
#	47028
#	61242
#	73893
#	84983
#	95213
#	105821
#	115390
#	128872
#	139587
#	149740
#	163559
#	177170
#
# Disc length: 2509 seconds
#
# Revision: 1
# Processed by: cddbd v1.5.2PL0 Copyright (c) Steve Scherf et al.
# Submitted via: audiograbber 1.83.01
#
DISCID=dd09cb10
DTITLE=Various Artist - Golden Age of Country: Crazy Arms [Disc 2]
DYEAR=2009
DGENRE=Country
TTITLE0=Ray Price - Heartaches by the Number
TTITLE1=Carl Perkins - Blue Suede Shoes
TTITLE2=Porter Wagoner and Dolly Parton - The Last Thing on My Mind
TTITLE3=Connie Smith - Once a Day
TTITLE4=Charley Pride: Kaw - Liga
TTITLE5=Johnny Cash and June Carter - Jackson
TTITLE6="Little" Jimmy Dickens - May the Bird of Paradise Fly Up Your Nose
TTITLE7=Buck Owens - I've Got a Tiger by the Tail
TTITLE8=Waylon Jennings - Only Daddy That'll Walk the Line
TTITLE9=Lester Flatt and Earl Scruggs and The Foggy Mountain Boys - The Ballad of J
TTITLE9=ed Clampett
TTITLE10=Tammy Wynette: D-I-V-O-R-C - E
TTITLE11=Jim Ed Brown - Pop a Top
TTITLE12=George Hamilton IV - Abilene
TTITLE13=Pee Wee King and His Golden West Cowboys - Slow Poke
TTITLE14=Stuart Hamble - This Ole House
TTITLE15=Floyd Cramer - Last Date
EXTD=
EXTT0=
EXTT1=
EXTT2=
EXTT3=
EXTT4=
EXTT5=
EXTT6=
EXTT7=
EXTT8=
EXTT9=
EXTT10=
EXTT11=
EXTT12=
EXTT13=
EXTT14=
EXTT15=
PLAYORDER=
